# xmcd
#
# Track frame offsets:
# 150
# 14540
# 27377
# 41082
# 54090
# 66755
# 79627
# 91467
# 103372
# 118227
# 126415
# 138570
# 149382
# 163452
# 176227
# 187362
# 207610
# 218822
# 230455
# 243872
#
# Disc length: 3426 seconds
#
#
# Revision: 0
# Processed by: cddbd v1.4PL0 Copyright (c) Steve Scherf et al.
# Submitted via: FreeRIP 2.20 
#
DISCID=3d0d6014
DTITLE=Lowell Fulson - Reconsider Baby
DYEAR=1993
DGENRE=Blues
TTITLE0=Reconsider Baby
TTITLE1=Lonely Hours
TTITLE2=Loving You (Is All I Crave)
TTITLE3=Touble Trouble
TTITLE4=It's A Long Time
TTITLE5=Rollin' Blues (instrumental)
TTITLE6=(It) Took A Long Time
TTITLE7=Don't Drive Me Baby
TTITLE8=I Want To Make Love To You - 2
TTITLE9=Rock This Morning
TTITLE10=That's All Right
TTITLE11=Comin' Home (Someday)
TTITLE12=Have You Changed Your Mind?
TTITLE13=I'm Glad You Reconsidered
TTITLE14=Blue Shadows
TTITLE15=I Want To Know. Part 1 and 2
TTITLE16=So Many Tears
TTITLE17=Why Don't You Write Me
TTITLE18=Hung Down Head
TTITLE19=Pay Day Blues
EXTD=Charly Blues Masterworks Vol. 48
EXTT0=
EXTT1=
EXTT2=
EXTT3=
EXTT4=
EXTT5=
EXTT6=
EXTT7=
EXTT8=
EXTT9=
EXTT10=
EXTT11=
EXTT12=
EXTT13=
EXTT14=
EXTT15=
EXTT16=
EXTT17=
EXTT18=
EXTT19=
PLAYORDER=
